<?xml version="1.0" encoding="UTF-8" standalone="no"?>
<!DOCTYPE svg PUBLIC "-//W3C//DTD SVG 1.1//EN"
 "http://www.w3.org/Graphics/SVG/1.1/DTD/svg11.dtd">
<!-- Generated by graphviz version 2.43.0 (0)
 -->
<!-- Title: MangoSenseArchitecture Pages: 1 -->
<svg width="1029pt" height="643pt"
 viewBox="0.00 0.00 1029.00 643.00" xmlns="http://www.w3.org/2000/svg" xmlns:xlink="http://www.w3.org/1999/xlink">
<g id="graph0" class="graph" transform="scale(1 1) rotate(0) translate(4 639)">
<title>MangoSenseArchitecture</title>
<polygon fill="white" stroke="transparent" points="-4,4 -4,-639 1025,-639 1025,4 -4,4"/>
<text text-anchor="middle" x="510.5" y="-616.6" font-family="Arial" font-size="18.00">MangoSense System Architecture</text>
<!-- backend -->
<g id="node1" class="node">
<title>backend</title>
<polygon fill="lightgrey" stroke="transparent" points="436,-259 169,-259 169,0 436,0 436,-259"/>
<polygon fill="#4caf50" stroke="transparent" points="177.5,-223.5 177.5,-254.5 428.5,-254.5 428.5,-223.5 177.5,-223.5"/>
<polygon fill="none" stroke="black" points="177.5,-223.5 177.5,-254.5 428.5,-254.5 428.5,-223.5 177.5,-223.5"/>
<text text-anchor="start" x="252.5" y="-236.9" font-family="Arial" font-weight="bold" font-size="12.00" fill="white">manggo&#45;backend</text>
<polygon fill="none" stroke="black" points="177.5,-192.5 177.5,-223.5 256.5,-223.5 256.5,-192.5 177.5,-192.5"/>
<text text-anchor="start" x="186.5" y="-204.9" font-family="Arial" font-size="12.00">Repository:</text>
<polygon fill="none" stroke="black" points="256.5,-192.5 256.5,-223.5 428.5,-223.5 428.5,-192.5 256.5,-192.5"/>
<text text-anchor="start" x="265.5" y="-204.9" font-family="Arial" font-size="12.00">botong101/manggo&#45;backend</text>
<polygon fill="none" stroke="black" points="177.5,-161.5 177.5,-192.5 256.5,-192.5 256.5,-161.5 177.5,-161.5"/>
<text text-anchor="start" x="186.5" y="-173.9" font-family="Arial" font-size="12.00">Type:</text>
<polygon fill="none" stroke="black" points="256.5,-161.5 256.5,-192.5 428.5,-192.5 428.5,-161.5 256.5,-161.5"/>
<text text-anchor="start" x="265.5" y="-173.9" font-family="Arial" font-size="12.00">Backend API Server</text>
<polygon fill="none" stroke="black" points="177.5,-130.5 177.5,-161.5 256.5,-161.5 256.5,-130.5 177.5,-130.5"/>
<text text-anchor="start" x="186.5" y="-142.9" font-family="Arial" font-size="12.00">Language:</text>
<polygon fill="none" stroke="black" points="256.5,-130.5 256.5,-161.5 428.5,-161.5 428.5,-130.5 256.5,-130.5"/>
<text text-anchor="start" x="265.5" y="-142.9" font-family="Arial" font-size="12.00">Python (98.7%)</text>
<polygon fill="none" stroke="black" points="177.5,-99.5 177.5,-130.5 256.5,-130.5 256.5,-99.5 177.5,-99.5"/>
<text text-anchor="start" x="186.5" y="-111.9" font-family="Arial" font-size="12.00">Role:</text>
<polygon fill="none" stroke="black" points="256.5,-99.5 256.5,-130.5 428.5,-130.5 428.5,-99.5 256.5,-99.5"/>
<text text-anchor="start" x="265.5" y="-111.9" font-family="Arial" font-size="12.00">Central API Layer</text>
<polygon fill="none" stroke="black" points="177.5,-3.5 177.5,-99.5 428.5,-99.5 428.5,-3.5 177.5,-3.5"/>
<text text-anchor="start" x="186.5" y="-80.9" font-family="Arial" font-size="12.00"> &#160;&#160;&#160;&#160;&#160;&#160;&#160;&#160;&#160;&#160;&#160;&#160;&#160;&#160;&#160;&#160;&#160;&#160;&#160;• RESTful API endpoints</text>
<text text-anchor="start" x="186.5" y="-67.9" font-family="Arial" font-size="12.00"> &#160;&#160;&#160;&#160;&#160;&#160;&#160;&#160;&#160;&#160;&#160;&#160;&#160;&#160;&#160;&#160;&#160;&#160;&#160;• Disease detection ML models</text>
<text text-anchor="start" x="186.5" y="-54.9" font-family="Arial" font-size="12.00"> &#160;&#160;&#160;&#160;&#160;&#160;&#160;&#160;&#160;&#160;&#160;&#160;&#160;&#160;&#160;&#160;&#160;&#160;&#160;• Image processing</text>
<text text-anchor="start" x="186.5" y="-41.9" font-family="Arial" font-size="12.00"> &#160;&#160;&#160;&#160;&#160;&#160;&#160;&#160;&#160;&#160;&#160;&#160;&#160;&#160;&#160;&#160;&#160;&#160;&#160;• Data persistence</text>
<text text-anchor="start" x="186.5" y="-28.9" font-family="Arial" font-size="12.00"> &#160;&#160;&#160;&#160;&#160;&#160;&#160;&#160;&#160;&#160;&#160;&#160;&#160;&#160;&#160;&#160;&#160;&#160;&#160;• Authentication &amp; authorization</text>
<text text-anchor="start" x="276" y="-15.9" font-family="Arial" font-size="12.00"> &#160;&#160;&#160;&#160;&#160;&#160;&#160;&#160;&#160;&#160;&#160;&#160;&#160;&#160;&#160;</text>
</g>
<!-- admin -->
<g id="node2" class="node">
<title>admin</title>
<polygon fill="lightgrey" stroke="transparent" points="291,-607 0,-607 0,-317 291,-317 291,-607"/>
<polygon fill="#2196f3" stroke="transparent" points="8.5,-572 8.5,-603 283.5,-603 283.5,-572 8.5,-572"/>
<polygon fill="none" stroke="black" points="8.5,-572 8.5,-603 283.5,-603 283.5,-572 8.5,-572"/>
<text text-anchor="start" x="102.5" y="-585.4" font-family="Arial" font-weight="bold" font-size="12.00" fill="white">manggo&#45;admin</text>
<polygon fill="none" stroke="black" points="8.5,-541 8.5,-572 90.5,-572 90.5,-541 8.5,-541"/>
<text text-anchor="start" x="17.5" y="-553.4" font-family="Arial" font-size="12.00">Repository:</text>
<polygon fill="none" stroke="black" points="90.5,-541 90.5,-572 283.5,-572 283.5,-541 90.5,-541"/>
<text text-anchor="start" x="99.5" y="-553.4" font-family="Arial" font-size="12.00">botong101/manggo&#45;admin</text>
<polygon fill="none" stroke="black" points="8.5,-510 8.5,-541 90.5,-541 90.5,-510 8.5,-510"/>
<text text-anchor="start" x="17.5" y="-522.4" font-family="Arial" font-size="12.00">Type:</text>
<polygon fill="none" stroke="black" points="90.5,-510 90.5,-541 283.5,-541 283.5,-510 90.5,-510"/>
<text text-anchor="start" x="99.5" y="-522.4" font-family="Arial" font-size="12.00">Web Admin Interface</text>
<polygon fill="none" stroke="black" points="8.5,-479 8.5,-510 90.5,-510 90.5,-479 8.5,-479"/>
<text text-anchor="start" x="17.5" y="-491.4" font-family="Arial" font-size="12.00">Languages:</text>
<polygon fill="none" stroke="black" points="90.5,-479 90.5,-510 283.5,-510 283.5,-479 90.5,-479"/>
<text text-anchor="start" x="99.5" y="-491.4" font-family="Arial" font-size="12.00">HTML (48.5%), TypeScript (45%)</text>
<polygon fill="none" stroke="black" points="8.5,-448 8.5,-479 90.5,-479 90.5,-448 8.5,-448"/>
<text text-anchor="start" x="17.5" y="-460.4" font-family="Arial" font-size="12.00">Framework:</text>
<polygon fill="none" stroke="black" points="90.5,-448 90.5,-479 283.5,-479 283.5,-448 90.5,-448"/>
<text text-anchor="start" x="99.5" y="-460.4" font-family="Arial" font-size="12.00">Angular 20</text>
<polygon fill="none" stroke="black" points="8.5,-417 8.5,-448 90.5,-448 90.5,-417 8.5,-417"/>
<text text-anchor="start" x="17.5" y="-429.4" font-family="Arial" font-size="12.00">Role:</text>
<polygon fill="none" stroke="black" points="90.5,-417 90.5,-448 283.5,-448 283.5,-417 90.5,-417"/>
<text text-anchor="start" x="99.5" y="-429.4" font-family="Arial" font-size="12.00">Administrative Dashboard</text>
<polygon fill="none" stroke="black" points="8.5,-321 8.5,-417 283.5,-417 283.5,-321 8.5,-321"/>
<text text-anchor="start" x="17.5" y="-398.4" font-family="Arial" font-size="12.00"> &#160;&#160;&#160;&#160;&#160;&#160;&#160;&#160;&#160;&#160;&#160;&#160;&#160;&#160;&#160;&#160;&#160;&#160;&#160;• Disease statistics dashboard</text>
<text text-anchor="start" x="17.5" y="-385.4" font-family="Arial" font-size="12.00"> &#160;&#160;&#160;&#160;&#160;&#160;&#160;&#160;&#160;&#160;&#160;&#160;&#160;&#160;&#160;&#160;&#160;&#160;&#160;• Image management</text>
<text text-anchor="start" x="17.5" y="-372.4" font-family="Arial" font-size="12.00"> &#160;&#160;&#160;&#160;&#160;&#160;&#160;&#160;&#160;&#160;&#160;&#160;&#160;&#160;&#160;&#160;&#160;&#160;&#160;• User management</text>
<text text-anchor="start" x="17.5" y="-359.4" font-family="Arial" font-size="12.00"> &#160;&#160;&#160;&#160;&#160;&#160;&#160;&#160;&#160;&#160;&#160;&#160;&#160;&#160;&#160;&#160;&#160;&#160;&#160;• Reports &amp; analytics</text>
<text text-anchor="start" x="17.5" y="-346.4" font-family="Arial" font-size="12.00"> &#160;&#160;&#160;&#160;&#160;&#160;&#160;&#160;&#160;&#160;&#160;&#160;&#160;&#160;&#160;&#160;&#160;&#160;&#160;• System configuration</text>
<text text-anchor="start" x="103.5" y="-333.4" font-family="Arial" font-size="12.00"> &#160;&#160;&#160;&#160;&#160;&#160;&#160;&#160;&#160;&#160;&#160;&#160;&#160;&#160;&#160;</text>
</g>
<!-- admin&#45;&gt;backend -->
<g id="edge1" class="edge">
<title>admin&#45;&gt;backend</title>
<path fill="none" stroke="#2196f3" stroke-width="2" d="M217.55,-309.32C224.33,-295.07 231.16,-280.67 237.86,-266.57"/>
<polygon fill="#2196f3" stroke="#2196f3" stroke-width="2" points="214.81,-308.57 213.91,-317 219.87,-310.97 214.81,-308.57"/>
<polygon fill="#2196f3" stroke="#2196f3" stroke-width="2" points="240.45,-267.66 241.35,-259.23 235.39,-265.25 240.45,-267.66"/>
<text text-anchor="middle" x="283.5" y="-291" font-family="Arial" font-size="10.00">HTTP/HTTPS Requests</text>
<text text-anchor="middle" x="283.5" y="-280" font-family="Arial" font-size="10.00">(REST API Calls)</text>
</g>
<!-- mobile -->
<g id="node3" class="node">
<title>mobile</title>
<polygon fill="lightgrey" stroke="transparent" points="611.5,-591.5 309.5,-591.5 309.5,-332.5 611.5,-332.5 611.5,-591.5"/>
<polygon fill="#ff9800" stroke="transparent" points="317.5,-556 317.5,-587 603.5,-587 603.5,-556 317.5,-556"/>
<polygon fill="none" stroke="black" points="317.5,-556 317.5,-587 603.5,-587 603.5,-556 317.5,-556"/>
<text text-anchor="start" x="415.5" y="-569.4" font-family="Arial" font-weight="bold" font-size="12.00" fill="white">manggo&#45;mobile</text>
<polygon fill="none" stroke="black" points="317.5,-525 317.5,-556 399.5,-556 399.5,-525 317.5,-525"/>
<text text-anchor="start" x="326.5" y="-537.4" font-family="Arial" font-size="12.00">Repository:</text>
<polygon fill="none" stroke="black" points="399.5,-525 399.5,-556 603.5,-556 603.5,-525 399.5,-525"/>
<text text-anchor="start" x="408.5" y="-537.4" font-family="Arial" font-size="12.00">botong101/manggo&#45;mobile</text>
<polygon fill="none" stroke="black" points="317.5,-494 317.5,-525 399.5,-525 399.5,-494 317.5,-494"/>
<text text-anchor="start" x="326.5" y="-506.4" font-family="Arial" font-size="12.00">Type:</text>
<polygon fill="none" stroke="black" points="399.5,-494 399.5,-525 603.5,-525 603.5,-494 399.5,-494"/>
<text text-anchor="start" x="408.5" y="-506.4" font-family="Arial" font-size="12.00">Mobile Application</text>
<polygon fill="none" stroke="black" points="317.5,-463 317.5,-494 399.5,-494 399.5,-463 317.5,-463"/>
<text text-anchor="start" x="326.5" y="-475.4" font-family="Arial" font-size="12.00">Languages:</text>
<polygon fill="none" stroke="black" points="399.5,-463 399.5,-494 603.5,-494 603.5,-463 399.5,-463"/>
<text text-anchor="start" x="408.5" y="-475.4" font-family="Arial" font-size="12.00">TypeScript (50.4%), SCSS (30.2%)</text>
<polygon fill="none" stroke="black" points="317.5,-432 317.5,-463 399.5,-463 399.5,-432 317.5,-432"/>
<text text-anchor="start" x="326.5" y="-444.4" font-family="Arial" font-size="12.00">Role:</text>
<polygon fill="none" stroke="black" points="399.5,-432 399.5,-463 603.5,-463 603.5,-432 399.5,-432"/>
<text text-anchor="start" x="408.5" y="-444.4" font-family="Arial" font-size="12.00">User&#45;Facing Mobile App</text>
<polygon fill="none" stroke="black" points="317.5,-336 317.5,-432 603.5,-432 603.5,-336 317.5,-336"/>
<text text-anchor="start" x="326.5" y="-413.4" font-family="Arial" font-size="12.00"> &#160;&#160;&#160;&#160;&#160;&#160;&#160;&#160;&#160;&#160;&#160;&#160;&#160;&#160;&#160;&#160;&#160;&#160;&#160;• Image capture interface</text>
<text text-anchor="start" x="326.5" y="-400.4" font-family="Arial" font-size="12.00"> &#160;&#160;&#160;&#160;&#160;&#160;&#160;&#160;&#160;&#160;&#160;&#160;&#160;&#160;&#160;&#160;&#160;&#160;&#160;• Disease detection results</text>
<text text-anchor="start" x="326.5" y="-387.4" font-family="Arial" font-size="12.00"> &#160;&#160;&#160;&#160;&#160;&#160;&#160;&#160;&#160;&#160;&#160;&#160;&#160;&#160;&#160;&#160;&#160;&#160;&#160;• User authentication</text>
<text text-anchor="start" x="326.5" y="-374.4" font-family="Arial" font-size="12.00"> &#160;&#160;&#160;&#160;&#160;&#160;&#160;&#160;&#160;&#160;&#160;&#160;&#160;&#160;&#160;&#160;&#160;&#160;&#160;• History tracking</text>
<text text-anchor="start" x="326.5" y="-361.4" font-family="Arial" font-size="12.00"> &#160;&#160;&#160;&#160;&#160;&#160;&#160;&#160;&#160;&#160;&#160;&#160;&#160;&#160;&#160;&#160;&#160;&#160;&#160;• Offline capabilities</text>
<text text-anchor="start" x="403" y="-348.4" font-family="Arial" font-size="12.00"> &#160;&#160;&#160;&#160;&#160;&#160;&#160;&#160;&#160;&#160;&#160;&#160;&#160;&#160;&#160;</text>
</g>
<!-- mobile&#45;&gt;backend -->
<g id="edge2" class="edge">
<title>mobile&#45;&gt;backend</title>
<path fill="none" stroke="#ff9800" stroke-width="2" d="M395.45,-324.93C386.23,-305.64 376.74,-285.8 367.52,-266.51"/>
<polygon fill="#ff9800" stroke="#ff9800" stroke-width="2" points="392.98,-326.26 398.96,-332.27 398.04,-323.85 392.98,-326.26"/>
<polygon fill="#ff9800" stroke="#ff9800" stroke-width="2" points="369.98,-265.16 364,-259.15 364.93,-267.57 369.98,-265.16"/>
<text text-anchor="middle" x="435.5" y="-291" font-family="Arial" font-size="10.00">HTTP/HTTPS Requests</text>
<text text-anchor="middle" x="435.5" y="-280" font-family="Arial" font-size="10.00">(REST API Calls)</text>
</g>
<!-- legend -->
<g id="node4" class="node">
<title>legend</title>
<polygon fill="lightgrey" stroke="transparent" points="1021,-533.5 630,-533.5 630,-390.5 1021,-390.5 1021,-533.5"/>
<polygon fill="lightgray" stroke="transparent" points="638.5,-502 638.5,-529 1013.5,-529 1013.5,-502 638.5,-502"/>
<polygon fill="none" stroke="black" points="638.5,-502 638.5,-529 1013.5,-529 1013.5,-502 638.5,-502"/>
<text text-anchor="start" x="804" y="-513.4" font-family="Arial" font-weight="bold" font-size="12.00">Legend</text>
<polygon fill="none" stroke="black" points="638.5,-475 638.5,-502 704.5,-502 704.5,-475 638.5,-475"/>
<text text-anchor="start" x="645.5" y="-485.4" font-family="Arial" font-size="12.00">API Flow:</text>
<polygon fill="none" stroke="black" points="704.5,-475 704.5,-502 1013.5,-502 1013.5,-475 704.5,-475"/>
<text text-anchor="start" x="711.5" y="-485.4" font-family="Arial" font-size="12.00">Bidirectional REST API communication</text>
<polygon fill="none" stroke="black" points="638.5,-448 638.5,-475 704.5,-475 704.5,-448 638.5,-448"/>
<text text-anchor="start" x="645.5" y="-458.4" font-family="Arial" font-size="12.00">Backend:</text>
<polygon fill="none" stroke="black" points="704.5,-448 704.5,-475 1013.5,-475 1013.5,-448 704.5,-448"/>
<text text-anchor="start" x="711.5" y="-458.4" font-family="Arial" font-size="12.00">Python&#45;based server (FastAPI/Flask/Django)</text>
<polygon fill="none" stroke="black" points="638.5,-421 638.5,-448 704.5,-448 704.5,-421 638.5,-421"/>
<text text-anchor="start" x="645.5" y="-431.4" font-family="Arial" font-size="12.00">Admin:</text>
<polygon fill="none" stroke="black" points="704.5,-421 704.5,-448 1013.5,-448 1013.5,-421 704.5,-421"/>
<text text-anchor="start" x="711.5" y="-431.4" font-family="Arial" font-size="12.00">Angular&#45;based web application</text>
<polygon fill="none" stroke="black" points="638.5,-394 638.5,-421 704.5,-421 704.5,-394 638.5,-394"/>
<text text-anchor="start" x="645.5" y="-404.4" font-family="Arial" font-size="12.00">Mobile:</text>
<polygon fill="none" stroke="black" points="704.5,-394 704.5,-421 1013.5,-421 1013.5,-394 704.5,-394"/>
<text text-anchor="start" x="711.5" y="-404.4" font-family="Arial" font-size="12.00">TypeScript&#45;based mobile app (likely Ionic/React Native)</text>
</g>
</g>
</svg>
